LG_Sit_Stand_Walk01																		
version=1																		
nRows=90																		
nColumns=19																		
inDegrees=yes																		
endheader																		
time	ground_force2_vx	ground_force2_vy	ground_force2_vz	ground_force2_px	ground_force2_py	ground_force2_pz	ground_torque2_x	ground_torque2_y	ground_torque2_z	ground_force1_vx	ground_force1_vy	ground_force1_vz	ground_force1_px	ground_force1_py	ground_force1_pz	ground_torque1_x	ground_torque1_y	ground_torque1_z
5.395	0	0	0	0.2	0	-0.3	0	0	0	51.84354	673.710815	38.937828	-0.140238	0	0.251885	-7.00E-06	0.711051	-5.00E-06
5.396	0	0	0	0.2	0	-0.3	0	0	0	51.529247	672.174927	38.937828	-0.140238	0	0.251477	-7.00E-06	0.711051	-3.00E-06
5.397	0	0	0	0.2	0	-0.3	0	0	0	51.529247	671.486389	39.564594	-0.140238	0	0.250936	-7.00E-06	0.66177	1.00E-06
5.398	0	0	0	0.2	0	-0.3	0	0	0	51.44923	671.660767	39.956287	-0.140182	0	0.251024	-8.00E-06	0.66177	1.00E-06
5.399	0	0	0	0.2	0	-0.3	0	0	0	50.744968	671.660767	40.113026	-0.140182	0	0.251024	-1.60E-05	0.66813	-3.00E-06
5.4	0	0	0	0.2	0	-0.3	0	0	0	50.744968	672.152893	40.269768	-0.140182	0	0.252269	-1.80E-05	0.66813	-3.00E-06
5.401	0	0	0	0.2	0	-0.3	0	0	0	51.054203	672.152893	42.385174	-0.139966	0	0.252269	-1.80E-05	0.537184	-7.00E-06
5.402	0	0	0	0.2	0	-0.3	0	0	0	51.054203	672.152893	42.385174	-0.139966	0	0.252153	-9.00E-06	0.537184	-7.00E-06
5.403	0	0	0	0.2	0	-0.3	0	0	0	49.957073	675.621338	41.836658	-0.140056	0	0.252153	-9.00E-06	0.537184	-7.00E-06
5.404	0	0	0	0.2	0	-0.3	0	0	0	49.957073	675.621338	41.601589	-0.140056	0	0.251369	-9.00E-06	0.487664	-5.00E-06
5.405	0	0	0	0.2	0	-0.3	0	0	0	49.957073	676.108154	41.836658	-0.139921	0	0.252426	-1.00E-06	0.487664	-5.00E-06
5.406	0	0	0	0.2	0	-0.3	0	0	0	49.877781	677.146484	42.541718	-0.139921	0	0.252426	-1.00E-06	0.452123	-5.00E-06
5.407	0	0	0	0.2	0	-0.3	0	0	0	49.642788	677.146484	42.541798	-0.139767	0	0.252426	-6.00E-06	0.452123	-7.00E-06
5.408	0	0	0	0.2	0	-0.3	0	0	0	49.642788	676.436829	42.698376	-0.139845	0	0.252377	-6.00E-06	0.371038	-4.00E-06
5.409	0	0	0	0.2	0	-0.3	0	0	0	49.642788	675.58551	42.855038	-0.139845	0	0.252377	-1.10E-05	0.36362	-5.00E-06
5.41	0	0	0	0.2	0	-0.3	0	0	0	49.173515	675.58551	43.325264	-0.139845	0	0.252488	-1.50E-05	0.371038	-5.00E-06
5.411	0	0	0	0.2	0	-0.3	0	0	0	48.232807	678.339233	43.325264	-0.139785	0	0.25262	-1.50E-05	0.384379	-5.00E-06
5.412	0	0	0	0.2	0	-0.3	0	0	0	48.232807	679.030762	43.325264	-0.139785	0	0.252971	-1.50E-05	0.384379	-7.00E-06
5.413	0	0	0	0.2	0	-0.3	0	0	0	48.695583	679.030762	44.343842	-0.139785	0	0.253211	-1.00E-05	0.12293	-8.00E-06
5.414	0	0	0	0.2	0	-0.3	0	0	0	48.695583	678.51355	44.343842	-0.139695	0	0.252971	-1.00E-05	0.12293	-8.00E-06
5.415	0	0	0	0.2	0	-0.3	0	0	0	47.682804	677.628235	44.343842	-0.139695	0	0.252718	-1.00E-05	0.218744	-7.00E-06
5.416	0	0	0	0.2	0	-0.3	0	0	0	47.682804	678.51355	44.422131	-0.139695	0	0.252718	-6.00E-06	0.241854	-3.00E-06
5.417	0	0	0	0.2	0	-0.3	0	0	0	48.069889	678.85376	45.362419	-0.139753	0	0.253159	-6.00E-06	0.241854	-7.00E-06
5.418	0	0	0	0.2	0	-0.3	0	0	0	48.069889	679.011536	45.832321	-0.13965	0	0.253573	-1.40E-05	0.241854	-3.00E-06
5.419	0	0	0	0.2	0	-0.3	0	0	0	47.835617	679.011536	45.362419	-0.139722	0	0.253573	-1.40E-05	0.195386	-5.00E-06
5.42	0	0	0	0.2	0	-0.3	0	0	0	47.835617	682.958252	45.988941	-0.13965	0	0.253907	-8.00E-06	0.175412	-5.00E-06
5.421	0	0	0	0.2	0	-0.3	0	0	0	47.361294	682.958252	45.988941	-0.13964	0	0.253907	-7.00E-06	0.030427	-5.00E-06
5.422	0	0	0	0.2	0	-0.3	0	0	0	47.754879	679.33783	46.929192	-0.139167	0	0.253907	-7.00E-06	0.030427	-2.00E-06
5.423	0	0	0	0.2	0	-0.3	0	0	0	47.754879	679.177673	46.929394	-0.139385	0	0.25411	-7.00E-06	0.049598	-2.00E-06
5.424	0	0	0	0.2	0	-0.3	0	0	0	47.987713	679.177673	47.634365	-0.139385	0	0.254306	-1.00E-05	0.108423	-2.00E-06
5.425	0	0	0	0.2	0	-0.3	0	0	0	48.064838	679.177673	48.104633	-0.139388	0	0.254753	-3.00E-06	0.108423	-9.00E-06
5.426	0	0	0	0.2	0	-0.3	0	0	0	47.987713	678.980896	48.261372	-0.139388	0	0.254985	1.00E-06	0.0301	-2.00E-06
5.427	0	0	0	0.2	0	-0.3	0	0	0	47.515553	678.980896	48.104633	-0.139388	0	0.254753	1.00E-06	-0.030873	-4.00E-06
5.428	0	0	0	0.2	0	-0.3	0	0	0	47.282722	677.787964	48.339664	-0.139251	0	0.254116	-1.00E-06	-0.030873	-4.00E-06
5.429	0	0	0	0.2	0	-0.3	0	0	0	47.282722	676.249268	48.418198	-0.139611	0	0.254116	-3.00E-06	-0.072405	-9.00E-06
5.43	0	0	0	0.2	0	-0.3	0	0	0	48.372639	673.810669	49.20166	-0.139251	0	0.25481	-3.00E-06	-0.119418	-9.00E-06
5.431	0	0	0	0.2	0	-0.3	0	0	0	48.372639	673.810669	49.20166	-0.139614	0	0.255291	3.00E-06	-0.120134	-8.00E-06
5.432	0	0	0	0.2	0	-0.3	0	0	0	47.042675	677.438049	49.906841	-0.139706	0	0.255348	3.00E-06	-0.120134	-7.00E-06
5.433	0	0	0	0.2	0	-0.3	0	0	0	47.042675	677.438049	49.593475	-0.139706	0	0.255348	-6.00E-06	-0.081876	-3.00E-06
5.434	0	0	0	0.2	0	-0.3	0	0	0	47.042675	676.395813	49.593475	-0.139416	0	0.255469	-6.00E-06	-0.081876	0.00E+00
5.435	0	0	0	0.2	0	-0.3	0	0	0	47.433372	675.533752	49.593475	-0.139285	0	0.255469	-4.00E-06	-0.195961	0
5.436	0	0	0	0.2	0	-0.3	0	0	0	47.350471	675.533752	50.141987	-0.139285	0	0.255751	-4.00E-06	-0.209283	0.00E+00
5.437	0	0	0	0.2	0	-0.3	0	0	0	47.350471	674.314026	50.298531	-0.139139	0	0.255804	-2.00E-05	-0.215158	0
5.438	0	0	0	0.2	0	-0.3	0	0	0	47.350471	672.937378	50.455193	-0.139039	0	0.256109	-2.00E-05	-0.228228	0.00E+00
5.439	0	0	0	0.2	0	-0.3	0	0	0	47.274063	672.937378	50.455193	-0.139139	0	0.256461	-1.00E-05	-0.269162	-7.00E-06
5.44	0	0	0	0.2	0	-0.3	0	0	0	46.565468	674.489563	50.141911	-0.139077	0	0.256461	3.00E-06	-0.269162	-7.00E-06
5.441	0	0	0	0.2	0	-0.3	0	0	0	46.565468	674.489563	50.141911	-0.139173	0	0.25634	3.00E-06	-0.220468	-1.00E-06
5.442	0	0	0	0.2	0	-0.3	0	0	0	47.115475	671.741638	51.317226	-0.139236	0	0.256166	1.00E-06	-0.220468	-1.00E-06
5.443	0	0	0	0.2	0	-0.3	0	0	0	47.893261	671.012207	52.100697	-0.139236	0	0.256166	-6.00E-06	-0.285676	-2.00E-06
5.444	0	0	0	0.2	0	-0.3	0	0	0	47.893261	671.012207	52.022449	-0.139028	0	0.256669	-9.00E-06	-0.411803	-3.00E-06
5.445	0	0	0	0.2	0	-0.3	0	0	0	47.892544	667.75592	52.022526	-0.138956	0	0.257526	-6.00E-06	-0.318901	-3.00E-06
5.446	0	0	0	0.2	0	-0.3	0	0	0	47.658268	667.75592	52.022526	-0.138956	0	0.257526	-9.00E-06	-0.336027	-3.00E-06
5.447	0	0	0	0.2	0	-0.3	0	0	0	47.656101	667.75592	52.49255	-0.139017	0	0.257526	-4.00E-06	-0.336027	-3.00E-06
5.448	0	0	0	0.2	0	-0.3	0	0	0	47.658268	668.268188	52.492588	-0.139147	0	0.257543	-7.00E-06	-0.421228	-3.00E-06
5.449	0	0	0	0.2	0	-0.3	0	0	0	48.045357	665.347839	53.276218	-0.139147	0	0.257693	-7.00E-06	-0.423794	-3.00E-06
5.45	0	0	0	0.2	0	-0.3	0	0	0	48.826031	664.812012	54.216465	-0.138961	0	0.25773	-8.00E-06	-0.456672	-8.00E-06
5.451	0	0	0	0.2	0	-0.3	0	0	0	48.826031	664.812012	54.216465	-0.13875	0	0.258461	-1.10E-05	-0.456672	-8.00E-06
5.452	0	0	0	0.2	0	-0.3	0	0	0	47.654659	665.141846	53.667988	-0.138961	0	0.258888	-8.00E-06	-0.397145	-9.00E-06
5.453	0	0	0	0.2	0	-0.3	0	0	0	47.494629	665.141846	53.667988	-0.139118	0	0.258888	-1.10E-05	-0.397145	-7.00E-06
5.454	0	0	0	0.2	0	-0.3	0	0	0	47.494629	665.157593	54.137936	-0.139118	0	0.258888	-5.00E-06	-0.539123	-9.00E-06
5.455	0	0	0	0.2	0	-0.3	0	0	0	47.807476	665.157593	54.451374	-0.139109	0	0.258917	-5.00E-06	-0.539123	-7.00E-06
5.456	0	0	0	0.2	0	-0.3	0	0	0	48.590313	665.157593	54.451458	-0.138894	0	0.259524	-3.00E-06	-0.539123	-5.00E-06
5.457	0	0	0	0.2	0	-0.3	0	0	0	48.590313	661.168884	54.451496	-0.138753	0	0.259524	-1.00E-06	-0.603847	-5.00E-06
5.458	0	0	0	0.2	0	-0.3	0	0	0	48.118156	661.020691	54.451538	-0.138753	0	0.259178	-3.00E-06	-0.603847	-5.00E-06
5.459	0	0	0	0.2	0	-0.3	0	0	0	47.491741	661.020691	54.451538	-0.138753	0	0.259178	-6.00E-06	-0.589997	-3.00E-06
5.46	0	0	0	0.2	0	-0.3	0	0	0	47.334599	664.115356	54.373447	-0.138954	0	0.25951	-8.00E-06	-0.564895	-3.00E-06
5.461	0	0	0	0.2	0	-0.3	0	0	0	47.334599	664.115356	54.373447	-0.138863	0	0.259566	-1.40E-05	-0.589997	-3.00E-06
5.462	0	0	0	0.2	0	-0.3	0	0	0	48.272415	660.13855	55.626896	-0.138863	0	0.260749	-1.70E-05	-0.60838	-1.00E-06
5.463	0	0	0	0.2	0	-0.3	0	0	0	48.739521	658.238464	55.626896	-0.138606	0	0.260749	-1.70E-05	-0.698672	-1.00E-06
5.464	0	0	0	0.2	0	-0.3	0	0	0	48.739521	658.069885	55.626896	-0.138606	0	0.260338	-1.70E-05	-0.758186	0.00E+00
5.465	0	0	0	0.2	0	-0.3	0	0	0	48.347378	656.0047	55.705227	-0.138975	0	0.260338	-5.00E-06	-0.726458	0.00E+00
5.466	0	0	0	0.2	0	-0.3	0	0	0	48.347378	656.0047	56.175457	-0.138975	0	0.260104	-5.00E-06	-0.758186	0
5.467	0	0	0	0.2	0	-0.3	0	0	0	48.501637	656.189087	56.410484	-0.138864	0	0.260708	-1.30E-05	-0.726458	-5.00E-06
5.468	0	0	0	0.2	0	-0.3	0	0	0	48.815929	657.521362	56.410366	-0.138683	0	0.261337	-1.30E-05	-0.764002	-6.00E-06
5.469	0	0	0	0.2	0	-0.3	0	0	0	49.125172	657.521362	56.410484	-0.138353	0	0.261337	-1.10E-05	-0.8462	-7.00E-06
5.47	0	0	0	0.2	0	-0.3	0	0	0	49.43874	650.635437	57.428944	-0.138683	0	0.261187	-1.10E-05	-0.8462	-8.00E-06
5.471	0	0	0	0.2	0	-0.3	0	0	0	49.43874	650.635437	57.585804	-0.138671	0	0.261187	-6.00E-06	-0.822438	-1.10E-05
5.472	0	0	0	0.2	0	-0.3	0	0	0	48.970188	653.920227	57.585804	-0.138671	0	0.262106	-1.20E-05	-0.821846	-9.00E-06
5.473	0	0	0	0.2	0	-0.3	0	0	0	48.970188	654.085999	57.507397	-0.138671	0	0.262255	-6.00E-06	-0.821846	-9.00E-06
5.474	0	0	0	0.2	0	-0.3	0	0	0	49.20013	654.43512	57.507397	-0.138777	0	0.262374	-3.00E-06	-0.83081	-5.00E-06
5.475	0	0	0	0.2	0	-0.3	0	0	0	49.20013	654.085999	57.507511	-0.138777	0	0.262397	1.00E-06	-0.862677	-5.00E-06
5.476	0	0	0	0.2	0	-0.3	0	0	0	48.809437	653.557617	57.585766	-0.138631	0	0.262397	-3.00E-06	-0.895409	-4.00E-06
5.477	0	0	0	0.2	0	-0.3	0	0	0	48.572994	651.14917	57.820881	-0.138317	0	0.262381	0.00E+00	-0.895409	-7.00E-06
5.478	0	0	0	0.2	0	-0.3	0	0	0	48.572994	650.63031	58.05587	-0.138483	0	0.262381	-5.00E-06	-0.894195	-7.00E-06
5.479	0	0	0	0.2	0	-0.3	0	0	0	48.49226	651.14917	58.05587	-0.138483	0	0.262636	-9.00E-06	-0.894195	-7.00E-06
5.48	0	0	0	0.2	0	-0.3	0	0	0	48.49226	653.031067	58.290943	-0.138483	0	0.263415	-1.40E-05	-0.941166	-7.00E-06
5.481	0	0	0	0.2	0	-0.3	0	0	0	48.49226	653.031067	58.290943	-0.138443	0	0.263563	-1.40E-05	-0.987007	-4.00E-06
5.482	0	0	0	0.2	0	-0.3	0	0	0	49.350063	650.617188	58.604343	-0.138184	0	0.263415	-5.00E-06	-1.122371	-8.00E-06
5.483	0	0	0	0.2	0	-0.3	0	0	0	49.350063	645.802551	58.761005	-0.138184	0	0.263011	-5.00E-06	-1.122371	-3.00E-06
5.484	0	0	0	0.2	0	-0.3	0	0	0	48.724369	645.802551	58.996239	-0.13865	0	0.263011	-1.00E-05	-1.041212	-4.00E-06
